<?xml version="1.0" ?><!DOCTYPE svg  PUBLIC '-//W3C//DTD SVG 1.1//EN'  'http://www.w3.org/Graphics/SVG/1.1/DTD/svg11.dtd'><svg enable-background="new 0 0 512 512" id="Layer_1" version="1.1" viewBox="0 0 512 512" xml:space="preserve" xmlns="http://www.w3.org/2000/svg" xmlns:xlink="http://www.w3.org/1999/xlink"><g><path d="M365.4,287.1L214.1,422.5H77.1c-34-36.5-57-83.4-63.6-135.5H365.4z" fill="#78FF39"/><path d="M498.5,287.1c-6.6,52-29.6,99-63.6,135.5H244.1l151.3-135.5H498.5z" fill="#78FF39"/><path d="M414,442.5c-42.6,36.1-97.8,57.9-158,57.9c-29.1,0-57-5.1-82.8-14.4l48.6-43.5H414z" fill="#78FF39"/><path d="M191.8,442.5l-39.1,35c-19.8-9.3-38.1-21.1-54.6-35H191.8z" fill="#78FF39"/><path d="M500.5,256c0,3.7-0.1,7.4-0.3,11.1c-0.3,6.7-0.9,13.4-1.7,20H395.4L244.1,422.5h190.8   c-6.6,7.1-13.6,13.8-21,20H221.8l-48.6,43.5c-7-2.5-13.8-5.3-20.5-8.5l39.1-35H98c-7.4-6.2-14.4-12.9-21-20h137.1l151.3-135.5H13.5   c-0.8-6.6-1.4-13.3-1.7-20c-0.2-3.7-0.3-7.4-0.3-11.1c0-10.5,0.7-20.8,1.9-30.9c5.6-44.6,23.2-85.4,49.6-119.2   c44.7-57.4,114.5-94.4,193-94.4c99.1,0,184.5,59,222.8,143.8c3.3,7.3,6.2,14.7,8.8,22.3c2.4,7,4.4,14.1,6.1,21.3   c3,12.4,5,25.3,6,38.4c0.3,4,0.5,8,0.6,12.1C500.4,251.6,500.5,253.8,500.5,256z" fill="#28B8F7"/><path d="M499.8,237.4c-1-13.1-3-25.9-6-38.4c-1.7-7.2-3.8-14.4-6.1-21.3c-2.6-7.6-5.5-15.1-8.8-22.3   c-7.4,4.5-12,11.4-12,19.3c0,2.1,0.5,4.3,1.2,5.7c-17.4,5.7-29.8,18.5-29.8,33.5c0,19.2,21.3,35.6,47.6,35.6h0.8h13.8   C500.3,245.4,500,241.4,499.8,237.4z" fill="#EFEFEF"/><path d="M135.9,186c0,21.4-23.5,39.2-52.4,39.2h-70c5.6-44.6,23.2-85.4,49.6-119.2c25.6,5.7,44.3,23.3,44.3,44.4   c0,0,0,0,0,0.7C124.3,157.5,135.9,170.3,135.9,186z" fill="#EFEFEF"/><g><path d="M395.4,287.1L244.1,422.5h190.8c-6.6,7.1-13.6,13.8-21,20H221.8l-48.6,43.5c-7-2.5-13.8-5.3-20.5-8.5    l39.1-35H98c-7.4-6.2-14.4-12.9-21-20h137.1l151.3-135.5H13.5c-0.8-6.6-1.4-13.3-1.7-20h488.4c-0.3,6.7-0.9,13.4-1.7,20H395.4z" fill="#256B13"/></g><path d="M361.9,171.5c0,50.6-79.2,137.7-100.6,160.4c-1.4,1.5-3.3,2.3-5.3,2.3c-2,0-3.9-0.8-5.3-2.3   c-21.4-22.6-100.6-109.8-100.6-160.4c0-58.5,47.4-105.9,105.9-105.9S361.9,113.1,361.9,171.5z" fill="#F42525"/><circle cx="256" cy="169.5" fill="#BC1313" r="68.9"/></g></svg>