<?xml version="1.0" ?><svg enable-background="new 45.6 168.9 504 504" id="Layer_1" version="1.1" viewBox="45.6 168.9 504 504" xml:space="preserve" xmlns="http://www.w3.org/2000/svg" xmlns:xlink="http://www.w3.org/1999/xlink"><polygon fill="#FF9800" points="297.6,567.8 241.2,500 241.2,432.2 354.1,432.2 354.1,500 "/><g><circle cx="399.3" cy="364.5" fill="#FFA726" r="22.6"/><circle cx="196" cy="364.5" fill="#FFA726" r="22.6"/></g><path d="M399.3,296.7c0-85.9-203.4-56.5-203.4,0c0,12.4,0,66.7,0,79.1c0,56.5,45.2,101.7,101.7,101.7  s101.7-45.2,101.7-101.7C399.3,363.3,399.3,309.1,399.3,296.7z" fill="#FFB74D"/><path d="M297.6,195c-68.9,0-113,55.4-113,124.3c0,9,0,26,0,26l22.6,19.2V308l135.6-45.2L388,308v56.5l22.6-19.2  c0,0,0-16.9,0-26c0-45.2-11.3-90.4-67.8-101.7L331.5,195L297.6,195L297.6,195z" fill="#FF5722"/><g><circle cx="342.8" cy="364.5" fill="#784719" r="11.3"/><circle cx="252.5" cy="364.5" fill="#784719" r="11.3"/></g><path d="M354.1,500L354.1,500l-56.5,11.3L241.2,500c0,0-124.3,22.6-124.3,146.9h361.5  C478.4,522.6,354.1,500,354.1,500z" fill="#CFD8DC"/><polygon fill="#3F51B5" points="286.3,545.2 275,646.9 320.2,646.9 308.9,545.2 320.2,533.9 297.6,511.3 275,533.9 "/></svg>